<svg viewBox="0 0 1024 1024" xmlns="http://www.w3.org/2000/svg" role="img"
  aria-labelledby="title desc">
  <title id="title">Arronix Onix Wave Glyph</title>
  <desc id="desc">Faceted onyx-like wave glyph, 1:1 ratio, single-colour.</desc>
  <path fill="currentColor"
    d="M988.222,605.127c-4.979,71.621 -15.918,133.604 -32.817,162.873c-47.917,82.994 -347.571,256 -443.405,256c-95.834,0 -395.488,-173.006 -443.405,-256c-20.767,-35.969 -32.533,-121.339 -35.3,-213.29c0.462,-0.361 0.92,-0.73 1.373,-1.108c76.551,-63.792 143.441,-98.217 211.486,-98.217c68.045,-0 134.934,34.425 211.485,98.217c99.949,83.291 200.566,123.321 300.515,123.321c76.498,0 153.387,-23.449 230.068,-71.796Zm2.483,-135.837c-0.462,0.361 -0.92,0.73 -1.373,1.108c-77.286,64.404 -153.893,98.217 -231.178,98.217c-77.285,0 -153.893,-33.813 -231.178,-98.217c-100.689,-83.908 -191.32,-123.321 -280.822,-123.321c-68.134,-0 -136.922,22.84 -210.304,70.763c5.013,-71.184 15.928,-132.711 32.745,-161.84c47.917,-82.994 347.571,-256 443.405,-256c95.834,-0 395.488,173.006 443.405,256c20.767,35.969 32.533,121.339 35.3,213.29Z" />
</svg>